%TF.GenerationSoftware,KiCad,Pcbnew,7.0.6-0*%
%TF.CreationDate,2024-07-04T16:38:01+08:00*%
%TF.ProjectId,led2835,6c656432-3833-4352-9e6b-696361645f70,rev?*%
%TF.SameCoordinates,Original*%
%TF.FileFunction,Legend,Bot*%
%TF.FilePolarity,Positive*%
%FSLAX46Y46*%
G04 Gerber Fmt 4.6, Leading zero omitted, Abs format (unit mm)*
G04 Created by KiCad (PCBNEW 7.0.6-0) date 2024-07-04 16:38:01*
%MOMM*%
%LPD*%
G01*
G04 APERTURE LIST*
%ADD10C,0.150000*%
%ADD11C,0.120000*%
G04 APERTURE END LIST*
D10*
X164718333Y-102724819D02*
X164718333Y-103439104D01*
X164718333Y-103439104D02*
X164765952Y-103581961D01*
X164765952Y-103581961D02*
X164861190Y-103677200D01*
X164861190Y-103677200D02*
X165004047Y-103724819D01*
X165004047Y-103724819D02*
X165099285Y-103724819D01*
X163718333Y-103724819D02*
X164289761Y-103724819D01*
X164004047Y-103724819D02*
X164004047Y-102724819D01*
X164004047Y-102724819D02*
X164099285Y-102867676D01*
X164099285Y-102867676D02*
X164194523Y-102962914D01*
X164194523Y-102962914D02*
X164289761Y-103010533D01*
D11*
%TO.C,J1*%
X158730000Y-101000000D02*
X158730000Y-102270000D01*
X158730000Y-102270000D02*
X160000000Y-102270000D01*
X161042929Y-98080000D02*
X161440000Y-98080000D01*
X161042929Y-98840000D02*
X161440000Y-98840000D01*
X161110000Y-100620000D02*
X161440000Y-100620000D01*
X161110000Y-101380000D02*
X161440000Y-101380000D01*
X161440000Y-97130000D02*
X164100000Y-97130000D01*
X161440000Y-99730000D02*
X164100000Y-99730000D01*
X161440000Y-102330000D02*
X161440000Y-97130000D01*
X164100000Y-97130000D02*
X164100000Y-102330000D01*
X164100000Y-98840000D02*
X170100000Y-98840000D01*
X164100000Y-100720000D02*
X170100000Y-100720000D01*
X164100000Y-100840000D02*
X170100000Y-100840000D01*
X164100000Y-100960000D02*
X170100000Y-100960000D01*
X164100000Y-101080000D02*
X170100000Y-101080000D01*
X164100000Y-101200000D02*
X170100000Y-101200000D01*
X164100000Y-101320000D02*
X170100000Y-101320000D01*
X164100000Y-101380000D02*
X170100000Y-101380000D01*
X164100000Y-102330000D02*
X161440000Y-102330000D01*
X170100000Y-98080000D02*
X164100000Y-98080000D01*
X170100000Y-98840000D02*
X170100000Y-98080000D01*
X170100000Y-100620000D02*
X164100000Y-100620000D01*
X170100000Y-101380000D02*
X170100000Y-100620000D01*
%TD*%
M02*
